Coordinates
version=1
nRows=13
nColumns=38
inDegrees=no

Units are S.I. units (second, meters, Newtons, ...)
If the header above contains a line with 'inDegrees', this indicates whether rotational values are in degrees (yes) or radians (no).

endheader
time	pelvis_tilt	pelvis_list	pelvis_rotation	pelvis_tx	pelvis_ty	pelvis_tz	hip_flexion_r	hip_adduction_r	hip_rotation_r	knee_angle_r	ankle_angle_r	subtalar_angle_r	mtp_angle_r	hip_flexion_l	hip_adduction_l	hip_rotation_l	knee_angle_l	ankle_angle_l	subtalar_angle_l	mtp_angle_l	lumbar_extension	lumbar_bending	lumbar_rotation	arm_flex_r	arm_add_r	arm_rot_r	elbow_flex_r	pro_sup_r	wrist_flex_r	wrist_dev_r	arm_flex_l	arm_add_l	arm_rot_l	elbow_flex_l	pro_sup_l	wrist_flex_l	wrist_dev_l
0.741667	0.22727	0.0858838	0.031988	0.473354	0.982571	-0.328888	0.310417	-0.121051	-0.047242	-1.54673	-0.0216235	-0.031798	-0.00405963	-0.100127	0.156241	0.0976225	-0.629275	0.41742	-0.0719804	0.00213752	-0.527517	-0.0812747	-0.145129	-0.33816	-0.346352	0.141929	1.85899	1.33961	-0.0266009	-0.00463286	-0.13041	-0.46282	0.0531184	1.97928	1.68739	0.0491703	-0.0193245
0.75	0.22021	0.0755788	0.0335951	0.473747	0.98598	-0.329007	0.333258	-0.107881	-0.0466915	-1.51085	-0.0119232	-0.031798	-0.00405963	-0.13035	0.143597	0.0992323	-0.591321	0.4036	-0.0719804	0.00213752	-0.517804	-0.0658837	-0.152665	-0.356294	-0.353047	0.126344	1.87362	1.32354	-0.0266009	-0.00463286	-0.127388	-0.456073	0.0593811	1.98652	1.69096	0.0491703	-0.0193245
0.758333	0.212667	0.0644205	0.035354	0.474369	0.989556	-0.329186	0.352877	-0.0965245	-0.0512828	-1.46819	-0.00224605	-0.031798	-0.00405963	-0.159524	0.129998	0.099293	-0.553655	0.385192	-0.0719804	0.00213752	-0.507051	-0.049259	-0.159818	-0.37377	-0.361467	0.111313	1.8896	1.31028	-0.0266009	-0.00463286	-0.128001	-0.449258	0.065433	1.99615	1.69368	0.0491703	-0.0193245
0.766667	0.204952	0.0528063	0.0370033	0.475163	0.99323	-0.329369	0.369094	-0.0866934	-0.0598762	-1.41927	0.00764081	-0.031798	-0.00405963	-0.187218	0.115853	0.0973015	-0.517625	0.362224	-0.0719804	0.00213752	-0.495774	-0.0320132	-0.166603	-0.39009	-0.371233	0.0970024	1.90579	1.30017	-0.0266009	-0.00463286	-0.131783	-0.442736	0.0712677	2.00754	1.69608	0.0491703	-0.0193245
0.775	0.197362	0.0411579	0.038308	0.476075	0.996942	-0.3295	0.381777	-0.0779177	-0.0709663	-1.36464	0.0179083	-0.031798	-0.00405963	-0.213054	0.101628	0.092932	-0.48451	0.334952	-0.0719804	0.00213752	-0.484498	-0.0147903	-0.173065	-0.404778	-0.381963	0.0835791	1.92126	1.29318	-0.0266009	-0.00463286	-0.138263	-0.436777	0.0767855	2.02012	1.69858	0.0491703	-0.0193245
0.783333	0.190173	0.0299142	0.0391057	0.477055	1.00064	-0.329531	0.390818	-0.0696648	-0.0828461	-1.30486	0.0286758	-0.031798	-0.00405963	-0.236733	0.0878155	0.0860973	-0.455415	0.303857	-0.0719804	0.00213752	-0.473704	0.00177686	-0.179291	-0.417431	-0.393282	0.0712029	1.93525	1.28898	-0.0266009	-0.00463286	-0.147001	-0.431556	0.0818262	2.03341	1.70142	0.0491703	-0.0193245
0.791667	0.183623	0.0195099	0.0393315	0.478064	1.00426	-0.329426	0.396126	-0.0614621	-0.0938009	-1.24054	0.0400183	-0.031798	-0.00405963	-0.258069	0.0748947	0.0769585	-0.431196	0.26959	-0.0719804	0.00213752	-0.463792	0.0171044	-0.185401	-0.427759	-0.404821	0.0600064	1.94727	1.28696	-0.0266009	-0.00463286	-0.157601	-0.427162	0.0862103	2.04701	1.70469	0.0491703	-0.0193245
0.8	0.177911	0.0103434	0.0390157	0.479082	1.00776	-0.329163	0.397625	-0.0529954	-0.102311	-1.17233	0.0519593	-0.031798	-0.00405963	-0.276987	0.0632792	0.0658792	-0.412446	0.232911	-0.0719804	0.00213752	-0.455069	0.0306909	-0.19151	-0.435607	-0.416222	0.0500656	1.95699	1.28634	-0.0266009	-0.00463286	-0.169708	-0.423609	0.0897836	2.06056	1.70832	0.0491703	-0.0193245
0.808333	0.173194	0.0027432	0.0382577	0.480096	1.01107	-0.328731	0.395286	-0.0441653	-0.107234	-1.10097	0.0644418	-0.031798	-0.00405963	-0.293479	0.0532767	0.0533373	-0.399542	0.194632	-0.0719804	0.00213752	-0.447738	0.0421459	-0.19769	-0.440968	-0.427138	0.0413706	1.96429	1.28631	-0.0266009	-0.00463286	-0.182984	-0.420854	0.0924568	2.07376	1.71222	0.0491703	-0.0193245
0.816667	0.169569	-0.00306087	0.03719	0.481104	1.01414	-0.328133	0.389169	-0.0350967	-0.107936	-1.0273	0.0772904	-0.031798	-0.00405963	-0.307546	0.0450571	0.0398258	-0.392745	0.155581	-0.0719804	0.00213752	-0.441901	0.0512125	-0.203922	-0.443969	-0.437249	0.0338095	1.96921	1.28619	-0.0266009	-0.00463286	-0.19709	-0.418817	0.0942282	2.08631	1.71623	0.0491703	-0.0193245
0.825	0.167067	-0.0069579	0.0359454	0.482104	1.0169	-0.327377	0.379471	-0.0261023	-0.104364	-0.952351	0.0901818	-0.031798	-0.00405963	-0.319124	0.0386374	0.0257741	-0.392301	0.116589	-0.0719804	0.00213752	-0.437554	0.0577814	-0.210092	-0.444853	-0.446281	0.0271741	1.97189	1.28555	-0.0266009	-0.00463286	-0.211682	-0.417391	0.095186	2.09792	1.72016	0.0491703	-0.0193245
0.833333	0.165639	-0.00896489	0.0346382	0.483091	1.01928	-0.326481	0.366567	-0.0176086	-0.097022	-0.877355	0.102638	-0.031798	-0.00405963	-0.32804	0.0338824	0.0115135	-0.398526	0.078493	-0.0719804	0.00213752	-0.434588	0.0618962	-0.215993	-0.443945	-0.454037	0.0211864	1.97255	1.2843	-0.0266009	-0.00463286	-0.226425	-0.416455	0.0954872	2.10836	1.72379	0.0491703	-0.0193245
0.841667	0.165168	-0.00922842	0.0333575	0.48406	1.0212	-0.325464	0.35102	-0.0100493	-0.0868626	-0.803769	0.114051	-0.031798	-0.00405963	-0.334013	0.0305135	-0.00271733	-0.41182	0.0421418	-0.0719804	0.00213752	-0.432805	0.0637531	-0.22136	-0.441609	-0.460414	0.0155368	1.97147	1.28266	-0.0266009	-0.00463286	-0.241013	-0.415879	0.0953192	2.11745	1.72687	0.0491703	-0.0193245
